Coordinates
version=1
nRows=14
nColumns=24
inDegrees=yes

Units are S.I. units (second, meters, Newtons, ...)
Angles are in degrees.

endheader
time	pelvis_tilt	pelvis_list	pelvis_rotation	pelvis_tx	pelvis_ty	pelvis_tz	hip_flexion_r	hip_adduction_r	hip_rotation_r	knee_angle_r	ankle_angle_r	subtalar_angle_r	mtp_angle_r	hip_flexion_l	hip_adduction_l	hip_rotation_l	knee_angle_l	ankle_angle_l	subtalar_angle_l	mtp_angle_l	lumbar_extension	lumbar_bending	lumbar_rotation
      3.96000000	     76.83604539	     -0.95674914	     -1.76785759	      0.55040237	      0.97432110	     -0.29930944	     -8.91210036	    -18.07323145	     -8.39058181	    -63.61667106	    -32.00182214	      0.00000000	      0.00000000	     -9.93285218	     -6.64178102	      1.89396764	    -56.08461746	    -37.21713594	      0.00000000	      0.00000000	      0.00000000	      0.00000000	      0.00000000
      3.97000000	     76.83239732	     -0.95737637	     -1.76975166	      0.55039382	      0.97432472	     -0.29930555	     -8.90901013	    -18.05853061	     -8.38264257	    -63.52477870	    -32.01548149	      0.00000000	      0.00000000	     -9.93049385	     -6.64555665	      1.88889305	    -56.07943662	    -37.20846504	      0.00000000	      0.00000000	      0.00000000	      0.00000000	      0.00000000
      3.98000000	     76.82767740	     -0.95811474	     -1.77230515	      0.55039090	      0.97432929	     -0.29929192	     -8.89971021	    -18.04655648	     -8.37496931	    -63.43508153	    -32.02679300	      0.00000000	      0.00000000	     -9.92484292	     -6.64944333	      1.88878035	    -56.07278324	    -37.20140138	      0.00000000	      0.00000000	      0.00000000	      0.00000000	      0.00000000
      3.99000000	     76.82279323	     -0.95927807	     -1.77548163	      0.55038347	      0.97433369	     -0.29927987	     -8.88646337	    -18.03829443	     -8.37036662	    -63.34779580	    -32.04099514	      0.00000000	      0.00000000	     -9.91751644	     -6.65316341	      1.89294590	    -56.06452866	    -37.19769629	      0.00000000	      0.00000000	      0.00000000	      0.00000000	      0.00000000
      4.00000000	     76.81846213	     -0.96094428	     -1.77856217	      0.55037027	      0.97433148	     -0.29927712	     -8.87248535	    -18.03317259	     -8.37062070	    -63.26427124	    -32.06112992	      0.00000000	      0.00000000	     -9.91021218	     -6.65661571	      1.90003689	    -56.05471994	    -37.19894466	      0.00000000	      0.00000000	      0.00000000	      0.00000000	      0.00000000
      4.01000000	     76.81555249	     -0.96296223	     -1.78033524	      0.55035926	      0.97432005	     -0.29928078	     -8.86066271	    -18.02982926	     -8.37631529	    -63.18608009	    -32.08766487	      0.00000000	      0.00000000	     -9.90457269	     -6.65999436	      1.90836512	    -56.04372198	    -37.20579079	      0.00000000	      0.00000000	      0.00000000	      0.00000000	      0.00000000
      4.02000000	     76.81506662	     -0.96494254	     -1.77992979	      0.55035449	      0.97430630	     -0.29928369	     -8.85312290	    -18.02694849	     -8.38690670	    -63.11425057	    -32.11896904	      0.00000000	      0.00000000	     -9.90163941	     -6.66380416	      1.91647711	    -56.03207175	    -37.21741591	      0.00000000	      0.00000000	      0.00000000	      0.00000000	      0.00000000
      4.03000000	     76.81789282	     -0.96655035	     -1.77730400	      0.55035278	      0.97430022	     -0.29928012	     -8.85113620	    -18.02378461	     -8.40105438	    -63.04889038	    -32.15229024	      0.00000000	      0.00000000	     -9.90154297	     -6.66842499	      1.92357063	    -56.02018159	    -37.23167492	      0.00000000	      0.00000000	      0.00000000	      0.00000000	      0.00000000
      4.04000000	     76.82438108	     -0.96767537	     -1.77318609	      0.55034981	      0.97430350	     -0.29927052	     -8.85488269	    -18.02035461	     -8.41710972	    -62.98924076	    -32.18479292	      0.00000000	      0.00000000	     -9.90391438	     -6.67381324	      1.92966711	    -56.00815398	    -37.24583286	      0.00000000	      0.00000000	      0.00000000	      0.00000000	      0.00000000
      4.05000000	     76.83399422	     -0.96828379	     -1.76872134	      0.55034256	      0.97430710	     -0.29926209	     -8.86329234	    -18.01732013	     -8.43357802	    -62.93413884	    -32.21433644	      0.00000000	      0.00000000	     -9.90851267	     -6.67958872	      1.93543171	    -55.99576283	    -37.25745523	      0.00000000	      0.00000000	      0.00000000	      0.00000000	      0.00000000
      4.06000000	     76.84542866	     -0.96837698	     -1.76492172	      0.55033012	      0.97430320	     -0.29925795	     -8.87426087	    -18.01567741	     -8.44936980	    -62.88266507	    -32.23983853	      0.00000000	      0.00000000	     -9.91531625	     -6.68515191	      1.94157509	    -55.98254353	    -37.26504475	      0.00000000	      0.00000000	      0.00000000	      0.00000000	      0.00000000
      4.07000000	     76.85708026	     -0.96795956	     -1.76234885	      0.55031745	      0.97429640	     -0.29925351	     -8.88529494	    -18.01632441	     -8.46377148	    -62.83461173	    -32.26120219	      0.00000000	      0.00000000	     -9.92405453	     -6.68986017	      1.94825096	    -55.96795161	    -37.26826632	      0.00000000	      0.00000000	      0.00000000	      0.00000000	      0.00000000
      4.08000000	     76.86731543	     -0.96690745	     -1.76122774	      0.55031383	      0.97429615	     -0.29924688	     -8.89438704	    -18.01958579	     -8.47619428	    -62.79057792	    -32.27893750	      0.00000000	      0.00000000	     -9.93377618	     -6.69325306	      1.95484774	    -55.95154389	    -37.26779266	      0.00000000	      0.00000000	      0.00000000	      0.00000000	      0.00000000
      4.09000000	     76.87452507	     -0.96499672	     -1.76162269	      0.55032059	      0.97430301	     -0.29924197	     -8.90060329	    -18.02495562	     -8.48590840	    -62.75173449	    -32.29372970	      0.00000000	      0.00000000	     -9.94289730	     -6.69509804	      1.96016103	    -55.93313617	    -37.26491359	      0.00000000	      0.00000000	      0.00000000	      0.00000000	      0.00000000
